<?xml version="1.0" encoding="UTF-8" standalone="no"?>
<svg
   width="31"
   height="50"
   viewBox="0 0 31 50"
   fill="none"
   version="1.1"
   id="svg1"
   sodipodi:docname="location_icon.svg"
   inkscape:version="1.4.2 (f4327f4, 2025-05-13)"
   xmlns:inkscape="http://www.inkscape.org/namespaces/inkscape"
   xmlns:sodipodi="http://sodipodi.sourceforge.net/DTD/sodipodi-0.dtd"
   xmlns="http://www.w3.org/2000/svg"
   xmlns:svg="http://www.w3.org/2000/svg">
  <sodipodi:namedview
     id="namedview1"
     pagecolor="#000000"
     bordercolor="#000000"
     borderopacity="0.25"
     inkscape:showpageshadow="2"
     inkscape:pageopacity="0.0"
     inkscape:pagecheckerboard="0"
     inkscape:deskcolor="#d1d1d1"
     inkscape:zoom="11.073292"
     inkscape:cx="5.3732891"
     inkscape:cy="30.930277"
     inkscape:window-width="1920"
     inkscape:window-height="1001"
     inkscape:window-x="-9"
     inkscape:window-y="-9"
     inkscape:window-maximized="1"
     inkscape:current-layer="svg1" />
  <g
     clip-path="url(#clip0_102_26)"
     id="g1">
    <path
       d="M15.5003 5.49459e-09C13.4648 -5.42429e-05 11.4492 0.40159 9.56868 1.182C7.68811 1.96241 5.97938 3.1063 4.54004 4.54837C3.1007 5.99043 1.95894 7.70242 1.17996 9.58659C0.40098 11.4708 2.86729e-05 13.4902 0 15.5296C0.000114536 15.6808 0.00243241 15.832 0.00695287 15.9831C0.310475 31.9296 7.50246 41.3111 15.5003 50C23.4966 41.3127 30.6869 31.9328 30.993 15.9919C30.9977 15.8379 31 15.6838 31 15.5296C30.9999 11.4109 29.3669 7.46094 26.4602 4.54858C23.5534 1.63622 19.6111 5.31626e-05 15.5003 5.49459e-09ZM15.5003 4.58898C18.3964 4.58898 21.1738 5.74165 23.2216 7.79342C25.2694 9.84519 26.4199 12.628 26.4199 15.5296C26.4199 18.4313 25.2694 21.2141 23.2216 23.2658C21.1738 25.3176 18.3964 26.4703 15.5003 26.4703C12.6043 26.4703 9.82683 25.3176 7.77902 23.2658C5.73121 21.2141 4.58076 18.4313 4.58075 15.5296C4.58076 12.628 5.73121 9.84519 7.77902 7.79342C9.82683 5.74165 12.6043 4.58898 15.5003 4.58898Z"
       fill="white"
       id="path1" />
  </g>
  <defs
     id="defs1">
    <clipPath
       id="clip0_102_26">
      <rect
         width="31"
         height="50"
         fill="white"
         id="rect1" />
    </clipPath>
  </defs>
</svg>
