<?xml version="1.0" encoding="UTF-8" standalone="no"?>
<!-- Created with Inkscape (http://www.inkscape.org/) -->

<svg
   width="141.4155"
   height="201.51657"
   viewBox="0 0 37.416183 53.317926"
   version="1.1"
   id="svg1"
   inkscape:version="1.4.2 (f4327f4, 2025-05-13)"
   sodipodi:docname="phone_icon.svg"
   xmlns:inkscape="http://www.inkscape.org/namespaces/inkscape"
   xmlns:sodipodi="http://sodipodi.sourceforge.net/DTD/sodipodi-0.dtd"
   xmlns="http://www.w3.org/2000/svg"
   xmlns:svg="http://www.w3.org/2000/svg"
   xmlns:rdf="http://www.w3.org/1999/02/22-rdf-syntax-ns#"
   xmlns:cc="http://creativecommons.org/ns#"
   xmlns:dc="http://purl.org/dc/elements/1.1/">
  <sodipodi:namedview
     id="namedview1"
     pagecolor="#000000"
     bordercolor="#000000"
     borderopacity="0.25"
     inkscape:showpageshadow="2"
     inkscape:pageopacity="0.0"
     inkscape:pagecheckerboard="0"
     inkscape:deskcolor="#d1d1d1"
     inkscape:document-units="px"
     inkscape:zoom="0.69753788"
     inkscape:cx="91.034483"
     inkscape:cy="351.95221"
     inkscape:window-width="1920"
     inkscape:window-height="1001"
     inkscape:window-x="-9"
     inkscape:window-y="-9"
     inkscape:window-maximized="1"
     inkscape:current-layer="layer1" />
  <defs
     id="defs1" />
  <g
     inkscape:label="Layer 1"
     inkscape:groupmode="layer"
     id="layer1">
    <path
       style="fill:#ffffff;fill-opacity:1;stroke:none;stroke-width:2.82135;stroke-linecap:square;stroke-linejoin:round;stroke-dasharray:none;stroke-opacity:1"
       d="m 1.3129169,10.133987 c -4.63195,10.5005 2.94264,41.7831 23.5111301,42.1613 2.62665,0.9741 2.95151,1.14 5.34706,0.9577 2.30484,-0.1935 5.5463,-0.2515 6.53074,-2.3447 2.04833,-4.355 -0.53058,-11.5776 -4.90776,-13.5782 -1.62549,-0.7429 -3.69883,-0.3208 -5.12606,0.7549 -1.23018,0.9271 -2.78085,3.691 -2.78085,3.691 -4.42048,5.8673 -18.1245001,-15.5308 -14.1049001,-23.8448 0.8558901,-1.7702 4.0850501,0.078 5.8445701,-0.7994 1.49613,-0.7463 3.34737,-1.8999 3.53197,-3.5616 0.58561,-5.2724004 -3.29077,-12.2623004 -8.45294,-13.48380038 -2.5727501,-0.6089 -5.0344401,2.13179998 -6.7778701,4.11929998 -1.42428,1.6237 -2.61509,5.9283004 -2.61509,5.9283004 z"
       id="path113"
       sodipodi:nodetypes="scccsssaaasss" />
  </g>
  <metadata
     id="metadata1">
    <rdf:RDF>
      <cc:Work
         rdf:about="">
        <dc:creator>
          <cc:Agent>
            <dc:title>yepgoryo</dc:title>
          </cc:Agent>
        </dc:creator>
      </cc:Work>
    </rdf:RDF>
  </metadata>
</svg>
